<svg width="72" height="36" viewBox="0 0 72 36" fill="none" xmlns="http://www.w3.org/2000/svg">
<path d="M0.254406 36H0.734406C0.732149 34.4131 1.25131 32.8695 2.21203 31.6066C3.17275 30.3436 4.52181 29.4313 6.05169 29.0099C6.17761 29.3833 6.30081 29.7278 6.42401 30.0499C5.11332 30.4023 3.95451 31.1751 3.12549 32.2497C2.29647 33.3243 1.84307 34.6413 1.83489 35.9985V35.9998H19.123C19.4107 35.8382 19.6502 35.6029 19.8171 35.3182C19.9839 35.0335 20.072 34.7095 20.0723 34.3795C20.0717 33.9723 19.9097 33.582 19.6218 33.294C19.3339 33.0061 18.9435 32.8441 18.5363 32.8435C18.1977 32.8439 17.873 32.9786 17.6335 33.218C17.394 33.4575 17.2593 33.7821 17.2589 34.1208C17.2593 34.4045 17.3722 34.6766 17.5729 34.8772C17.7735 35.0779 18.0455 35.1908 18.3293 35.1912C18.3929 35.1912 18.454 35.1659 18.499 35.1209C18.544 35.0759 18.5693 35.0148 18.5693 34.9512C18.5693 34.8875 18.544 34.8265 18.499 34.7815C18.454 34.7365 18.3929 34.7112 18.3293 34.7112C18.1729 34.7111 18.023 34.6489 17.9124 34.5383C17.8018 34.4277 17.7397 34.2778 17.7395 34.1214C17.7398 33.9102 17.8238 33.7077 17.9732 33.5583C18.1226 33.409 18.3251 33.325 18.5363 33.3248C18.8163 33.3251 19.0847 33.4364 19.2827 33.6344C19.4807 33.8324 19.592 34.1008 19.5923 34.3808C19.5919 34.7467 19.4464 35.0975 19.1876 35.3562C18.9289 35.6149 18.5781 35.7604 18.2122 35.7608H13.8683C14.74 35.16 15.595 34.072 16.4827 32.9392C17.5629 31.5609 18.676 30.1443 19.7059 29.8721C19.3522 31.2894 19.7896 32.9614 21.6062 33.7885L21.8288 33.8845C21.8517 33.8937 21.8746 33.9022 21.8974 33.9113C21.7936 34.6027 21.741 35.3008 21.7402 36H22.2211C22.2219 35.3563 22.2681 34.7134 22.3594 34.0761C22.7701 34.2084 23.1908 34.3072 23.6174 34.3715C23.5453 34.9113 23.5086 35.4553 23.5077 36H23.9877C23.9887 35.4749 24.0242 34.9505 24.0939 34.4301C24.4016 34.4606 24.717 34.4803 25.0435 34.4803C25.1555 34.4803 25.2717 34.4737 25.3861 34.4701C25.3121 34.9767 25.2747 35.488 25.2741 36H25.7541C25.7548 35.4796 25.7951 34.9601 25.8749 34.4459C26.3236 34.4117 26.7702 34.3529 27.2125 34.2699C27.1006 34.8398 27.0441 35.4192 27.044 36H27.524C27.5245 35.3826 27.5922 34.7672 27.7259 34.1645C28.2149 34.0537 28.6973 33.9158 29.1709 33.7513C28.9305 34.4767 28.8077 35.2358 28.8072 36H29.2859C29.2887 34.2204 29.9967 32.5146 31.2549 31.2561C32.5131 29.9977 34.2189 29.2893 35.9984 29.2862H35.9998V28.8077C35.2358 28.8079 34.4767 28.9305 33.7515 29.171C33.9162 28.6968 34.0539 28.2136 34.1642 27.7238C34.767 27.5907 35.3825 27.5239 35.9998 27.5248V27.0448C35.4192 27.0441 34.8399 27.1 34.2701 27.2115C34.3527 26.7691 34.4115 26.3226 34.4461 25.8739C34.9603 25.795 35.4799 25.7557 36.0002 25.7563V25.2763C35.4889 25.2758 34.9784 25.3121 34.4723 25.3848C34.487 24.9532 34.4735 24.5212 34.432 24.0913C34.9518 24.0227 35.4757 23.9887 36 23.9896V23.5096C35.4554 23.5087 34.9113 23.5439 34.3714 23.615C34.3073 23.1886 34.2083 22.7681 34.0754 22.3579C34.7128 22.2668 35.3559 22.2211 35.9998 22.2213V21.7413C35.3002 21.7405 34.6014 21.792 33.9094 21.8953C33.9002 21.872 33.8922 21.8491 33.8821 21.8253L33.7861 21.6035C32.9595 19.7888 31.2872 19.3518 29.8685 19.7069C30.1374 18.68 31.5568 17.5653 32.9378 16.4833C34.0709 15.5957 35.1592 14.7409 35.7602 13.8691V18.2126C35.7597 18.5785 35.6142 18.9293 35.3554 19.188C35.0967 19.4467 34.7459 19.5922 34.38 19.5926C34.1 19.5923 33.8316 19.481 33.6336 19.283C33.4357 19.085 33.3243 18.8166 33.324 18.5366C33.3243 18.3254 33.4083 18.1229 33.5577 17.9735C33.707 17.8241 33.9096 17.7401 34.1208 17.7398C34.2771 17.74 34.427 17.8022 34.5375 17.9128C34.6481 18.0234 34.7102 18.1732 34.7104 18.3296C34.7104 18.3932 34.7357 18.4543 34.7807 18.4993C34.8257 18.5443 34.8868 18.5696 34.9504 18.5696C35.0141 18.5696 35.0751 18.5443 35.1201 18.4993C35.1651 18.4543 35.1904 18.3932 35.1904 18.3296C35.1899 18.0459 35.077 17.7739 34.8764 17.5733C34.6758 17.3727 34.4039 17.2598 34.1202 17.2593C33.7815 17.2597 33.4568 17.3944 33.2174 17.6339C32.9779 17.8733 32.8432 18.198 32.8427 18.5366C32.8433 18.9438 33.0053 19.3342 33.2933 19.6221C33.5812 19.91 33.9715 20.072 34.3787 20.0726C34.7089 20.0724 35.033 19.9843 35.3179 19.8175C35.6028 19.6506 35.8381 19.411 35.9998 19.1232V1.83518H35.9952C34.6374 1.84189 33.3193 2.29426 32.2436 3.12279C31.1678 3.95132 30.3939 5.11017 30.0406 6.42126C29.7254 6.30062 29.3846 6.1787 28.999 6.04894C29.4222 4.51919 30.3359 3.1707 31.5999 2.21068C32.8638 1.25066 34.408 0.732219 35.9952 0.735022H35.9998V0.255022H35.9952C34.3063 0.251426 32.6628 0.801181 31.3159 1.82019C29.9691 2.8392 28.9932 4.27136 28.5374 5.89758C28.1694 5.77742 27.7995 5.65902 27.4358 5.54462C25.1938 4.83902 23.0758 4.17246 22.5787 2.97342C22.5699 2.95571 22.5588 2.9392 22.5458 2.9243C22.5397 2.91379 22.5329 2.90374 22.5254 2.89422H22.5243C22.4798 2.85093 22.4203 2.82646 22.3582 2.8259C22.3262 2.82562 22.2944 2.83182 22.2648 2.84414C22.2356 2.85618 22.2091 2.87387 22.1867 2.89618C22.1644 2.9185 22.1467 2.945 22.1346 2.97418C22.1225 3.00336 22.1163 3.03464 22.1163 3.06622C22.1163 3.0978 22.1226 3.12906 22.1347 3.15822C22.6325 4.35822 21.6056 6.32846 20.5187 8.41438C20.341 8.75582 20.1616 9.10414 19.9843 9.4531C18.5126 8.62615 16.8109 8.30303 15.1385 8.53299C13.4661 8.76296 11.9148 9.53339 10.7209 10.7269C9.52699 11.9204 8.75604 13.4715 8.52552 15.1438C8.29499 16.8161 8.61754 18.5179 9.44401 19.9899C9.09681 20.1659 8.75041 20.3446 8.41105 20.5214C6.32641 21.6078 4.35681 22.6334 3.15777 22.136C3.12863 22.1238 3.09738 22.1176 3.06581 22.1175C3.03425 22.1175 3.00298 22.1236 2.9738 22.1357C2.94463 22.1478 2.91812 22.1654 2.89579 22.1878C2.87346 22.2101 2.85576 22.2366 2.84369 22.2657C2.83139 22.2955 2.82513 22.3274 2.82529 22.3597C2.8265 22.4172 2.84837 22.4724 2.88689 22.5152C2.88993 22.5187 2.89121 22.5233 2.89441 22.5267C2.90915 22.5391 2.92525 22.5499 2.94241 22.5587C2.95217 22.5665 2.96255 22.5734 2.97345 22.5795C4.17345 23.0768 4.83921 25.1937 5.54417 27.435C5.65985 27.803 5.77953 28.1765 5.90129 28.5491C4.27485 29.0028 2.84196 29.9771 1.82207 31.3228C0.80218 32.6685 0.251514 34.3115 0.254406 36ZM6.68641 35.7638C6.67937 35.7638 6.67329 35.7597 6.66609 35.7597H6.19809C5.85271 35.7308 5.53072 35.5734 5.29574 35.3186C5.06076 35.0639 4.92988 34.7302 4.92897 34.3837C4.92926 34.1037 5.04061 33.8353 5.23859 33.6373C5.43656 33.4393 5.70499 33.328 5.98497 33.3277C6.19617 33.3279 6.39867 33.4118 6.54804 33.5612C6.69742 33.7105 6.78147 33.9129 6.78177 34.1241C6.78164 34.2805 6.71946 34.4305 6.60889 34.541C6.49832 34.6516 6.34838 34.7138 6.19201 34.7139C6.12835 34.7139 6.06731 34.7392 6.0223 34.7842C5.97729 34.8292 5.95201 34.8903 5.95201 34.9539C5.95201 35.0176 5.97729 35.0786 6.0223 35.1236C6.06731 35.1686 6.12835 35.1939 6.19201 35.1939C6.47576 35.1935 6.74778 35.0806 6.94843 34.8799C7.14907 34.6793 7.26198 34.4073 7.26241 34.1235C7.26198 33.7849 7.12725 33.4602 6.88777 33.2208C6.64828 32.9814 6.32361 32.8467 5.98497 32.8464C5.57778 32.847 5.18743 33.009 4.8995 33.2969C4.61158 33.5848 4.44956 33.9752 4.44897 34.3824C4.4494 34.6417 4.504 34.898 4.60928 35.135C4.71456 35.3719 4.86819 35.5843 5.06033 35.7584H2.32641C2.38413 34.5401 2.83031 33.3723 3.59961 32.4258C4.36892 31.4794 5.42097 30.8041 6.60177 30.4987C7.14865 31.8408 8.02881 33.5667 9.55857 34.3894C8.42257 35.2683 7.54017 35.7091 6.80657 35.7589C6.76641 35.7625 6.72609 35.7635 6.68641 35.7638ZM8.35537 35.7638C8.99581 35.4127 9.60021 34.9995 10.1598 34.5302C10.1611 34.5296 10.1623 34.5289 10.1635 34.5281C10.8515 33.9701 11.5715 33.3121 12.2683 32.6776C12.4947 32.4707 12.7221 32.2633 12.9493 32.0582C12.951 32.0568 12.9533 32.0563 12.955 32.0547C12.9568 32.0531 12.957 32.0515 12.9582 32.0502C13.4346 31.6216 13.7987 31.3032 14.1374 31.0197C15.3534 30.0046 16.9075 28.8757 18.2893 28.9801C17.1318 29.3712 15.8802 30.6817 14.572 32.0541C12.8325 33.8781 11.0336 35.7661 9.32657 35.7661L8.35537 35.7638ZM11.6762 25.4315C11.6859 25.4287 11.6954 25.4253 11.7048 25.4214C12.2837 25.2211 12.8846 25.0421 13.4918 24.8893C14.1072 24.7321 14.7382 24.6013 15.3675 24.5001C15.7643 24.4361 16.1626 24.3872 16.5568 24.3485C16.6814 25.6032 16.9184 27.0117 17.5328 28.0264C16.1128 27.2344 15.5611 25.6981 15.5552 25.6814C15.5449 25.6516 15.5288 25.6241 15.5079 25.6005C15.4869 25.5769 15.4616 25.5576 15.4332 25.5438C15.4048 25.53 15.374 25.5219 15.3425 25.52C15.311 25.5181 15.2794 25.5225 15.2496 25.5328C15.2198 25.5431 15.1923 25.5592 15.1687 25.5801C15.1451 25.601 15.1258 25.6264 15.112 25.6548C15.0982 25.6832 15.0901 25.714 15.0882 25.7455C15.0863 25.777 15.0907 25.8086 15.101 25.8384C15.339 26.4547 15.6885 27.022 16.132 27.5117L13.3237 26.3489C13.2945 26.3369 13.2633 26.3306 13.2317 26.3306C13.2002 26.3306 13.1689 26.3368 13.1398 26.3489C13.1106 26.361 13.0841 26.3787 13.0618 26.401C13.0395 26.4233 13.0218 26.4498 13.0097 26.4789C12.9976 26.5081 12.9914 26.5393 12.9914 26.5709C12.9914 26.6025 12.9976 26.6337 13.0097 26.6629C13.0217 26.692 13.0394 26.7185 13.0617 26.7408C13.084 26.7632 13.1105 26.7809 13.1397 26.7929L15.9419 27.9525C15.2845 27.9862 14.6388 28.1402 14.037 28.4069C14.0086 28.4207 13.9832 28.44 13.9623 28.4636C13.9414 28.4873 13.9254 28.5148 13.9151 28.5446C13.9048 28.5745 13.9005 28.606 13.9024 28.6375C13.9044 28.669 13.9125 28.6999 13.9263 28.7282C13.9402 28.7566 13.9594 28.7819 13.9831 28.8029C14.0067 28.8238 14.0343 28.8398 14.0641 28.8501C14.0939 28.8604 14.1255 28.8647 14.157 28.8627C14.1885 28.8608 14.2193 28.8527 14.2477 28.8389C14.2637 28.831 15.7536 28.1224 17.3318 28.5861C16.1654 28.864 14.997 29.6934 14.0186 30.4949C13.7626 30.1832 13.5141 29.8645 13.2808 29.5411C12.9173 29.0398 12.5634 28.5011 12.2288 27.9411C11.9067 27.4011 11.6109 26.8531 11.3488 26.3149C11.348 26.3129 11.347 26.311 11.3459 26.3091C11.3445 26.3061 11.3427 26.303 11.3413 26.3C11.2112 26.0299 11.1142 25.8128 11.0507 25.6653C11.1944 25.6091 11.4078 25.5273 11.6763 25.4321L11.6762 25.4315ZM11.4202 23.8475C11.9002 23.6875 12.4098 23.5353 12.9242 23.4003L13.1509 24.484C12.6851 24.6062 12.2248 24.7433 11.7739 24.8937L11.4202 23.8475ZM13.3912 23.2854C13.8893 23.1657 14.397 23.0614 14.9088 22.975L15.0598 24.0675C14.5757 24.1507 14.0931 24.2509 13.6173 24.3664L13.3912 23.2854ZM12.54 17.0113C12.78 17.2502 13.1049 17.3843 13.4435 17.3843C13.7822 17.3843 14.107 17.2502 14.347 17.0113C14.5476 16.8104 14.6602 16.5381 14.6602 16.2541C14.6602 15.9702 14.5476 15.6979 14.347 15.4969C14.302 15.4519 14.2409 15.4266 14.1771 15.4266C14.1134 15.4266 14.0523 15.4519 14.0072 15.4969C13.9621 15.542 13.9368 15.6031 13.9368 15.6669C13.9368 15.7306 13.9621 15.7917 14.0072 15.8368C14.1178 15.9475 14.1799 16.0975 14.1799 16.254C14.1799 16.4104 14.1178 16.5605 14.0072 16.6712C13.8573 16.82 13.6547 16.9035 13.4435 16.9035C13.2323 16.9035 13.0297 16.82 12.8798 16.6712C12.6823 16.4727 12.5713 16.2041 12.5713 15.9241C12.5713 15.644 12.6823 15.3754 12.8798 15.1769C13.1386 14.9183 13.4894 14.7729 13.8553 14.7729C14.2211 14.7729 14.572 14.9183 14.8307 15.1769C14.8382 15.1828 14.846 15.1881 14.8541 15.1929L15.073 15.4118C15.0778 15.4176 15.0798 15.4249 15.0853 15.4304C15.6219 15.967 15.9664 16.9294 16.1603 18.4397C14.4963 17.9409 12.6512 18.5413 11.3134 19.1048C10.6948 18.0523 10.4295 16.8294 10.5563 15.6151C10.6832 14.4009 11.1957 13.2592 12.0186 12.3574L13.959 14.2979C13.9245 14.296 13.8902 14.2929 13.8554 14.2929C13.611 14.2922 13.369 14.3398 13.1432 14.4332C12.9174 14.5266 12.7124 14.6638 12.54 14.8369C12.2519 15.1257 12.0901 15.5169 12.0901 15.9248C12.0902 16.3327 12.252 16.7239 12.5402 17.0126L12.54 17.0113ZM15.4386 15.104C15.4346 15.0992 15.4328 15.0931 15.4283 15.088L15.0971 14.7568C14.873 14.4926 14.7562 14.1539 14.7698 13.8077C14.7834 13.4615 14.9264 13.133 15.1706 12.8872C15.2685 12.7886 15.385 12.7105 15.5133 12.6572C15.6417 12.604 15.7793 12.5767 15.9182 12.5769H15.9192C16.0578 12.5767 16.1951 12.6041 16.3231 12.6573C16.4511 12.7106 16.5672 12.7887 16.6648 12.8872C16.8138 13.0366 16.8975 13.239 16.8975 13.4501C16.8975 13.6611 16.8138 13.8635 16.6648 14.0129C16.5542 14.1233 16.4044 14.1852 16.2482 14.1852C16.092 14.1852 15.9421 14.1233 15.8315 14.0129C15.8092 13.9906 15.7827 13.9729 15.7536 13.9609C15.7244 13.9488 15.6932 13.9426 15.6616 13.9426C15.63 13.9426 15.5988 13.9488 15.5696 13.9609C15.5405 13.9729 15.514 13.9906 15.4917 14.0129C15.4694 14.0353 15.4517 14.0617 15.4396 14.0909C15.4275 14.1201 15.4213 14.1513 15.4213 14.1829C15.4213 14.2144 15.4275 14.2457 15.4396 14.2748C15.4517 14.304 15.4694 14.3305 15.4917 14.3528C15.6925 14.5532 15.9645 14.6657 16.2482 14.6657C16.5318 14.6657 16.8039 14.5532 17.0046 14.3528C17.2437 14.1132 17.3779 13.7886 17.3779 13.4502C17.3779 13.1118 17.2437 12.7872 17.0046 12.5477C16.8626 12.4044 16.6936 12.2907 16.5073 12.2132C16.321 12.1358 16.1211 12.0961 15.9194 12.0965H15.9181C15.7159 12.0959 15.5157 12.1355 15.3289 12.2129C15.1422 12.2903 14.9726 12.404 14.8301 12.5473C14.6475 12.7308 14.5052 12.9502 14.4121 13.1917C14.319 13.4332 14.2772 13.6914 14.2894 13.9499L12.3587 12.0192C13.261 11.1983 14.4024 10.6879 15.6157 10.5627C16.829 10.4375 18.0506 10.7041 19.1014 11.3233C18.5398 12.6603 17.9416 14.5049 18.4427 16.1672C16.9403 15.9763 15.9794 15.6353 15.4386 15.104ZM28.5818 17.3128C28.1317 15.7462 28.8317 14.2633 28.8395 14.2473C28.8674 14.1901 28.8714 14.124 28.8506 14.0638C28.8298 14.0036 28.7859 13.9541 28.7286 13.9262C28.6714 13.8983 28.6053 13.8944 28.5451 13.9152C28.4849 13.936 28.4354 13.9798 28.4075 14.0371C28.1397 14.6412 27.9856 15.2895 27.9528 15.9494L26.7904 13.1414C26.766 13.0825 26.7193 13.0358 26.6604 13.0113C26.6016 12.9869 26.5354 12.9869 26.4766 13.0113C26.4177 13.0356 26.3709 13.0824 26.3465 13.1412C26.3221 13.2001 26.322 13.2662 26.3464 13.3251L27.5058 16.1251C27.0174 15.6844 26.4525 15.337 25.8389 15.1C25.7787 15.0791 25.7126 15.0831 25.6553 15.111C25.598 15.1388 25.554 15.1883 25.5332 15.2485C25.5124 15.3088 25.5163 15.3748 25.5442 15.4322C25.572 15.4895 25.6215 15.5334 25.6818 15.5542C25.6978 15.5601 27.2528 16.1174 28.041 17.5557C27.0195 16.9278 25.6069 16.6889 24.349 16.5637C24.3875 16.1696 24.4362 15.7696 24.5006 15.368C24.6005 14.7457 24.7309 14.1145 24.8882 13.4921C25.0442 12.879 25.2291 12.2601 25.423 11.7032V11.7016C25.5216 11.4192 25.6062 11.1977 25.6654 11.0491C25.8117 11.112 26.0262 11.2077 26.2918 11.3358C26.2944 11.3373 26.2962 11.3397 26.2989 11.3409C26.3016 11.3422 26.3029 11.3409 26.3048 11.3424C26.8422 11.6033 27.3872 11.8974 27.9242 12.2157C27.927 12.2176 27.9285 12.2208 27.9315 12.2227C27.9378 12.2267 27.9446 12.2283 27.9512 12.2317C28.5058 12.5641 29.0402 12.9163 29.54 13.2787C29.8627 13.5113 30.18 13.7587 30.4899 14.0128C29.6923 14.987 28.865 16.1483 28.5818 17.3131V17.3128ZM28.921 19.6547C27.8544 19.1283 26.1243 19.3361 24.3062 19.5571C22.3725 19.7917 20.3731 20.0345 19.5829 19.2446C19.5774 19.2392 19.5702 19.2371 19.5645 19.2323L18.5187 18.1862C19.9445 18.6261 21.8192 18.5835 23.6512 18.5401C25.8026 18.4891 27.8344 18.4408 28.6406 19.224C28.7655 19.3446 28.8613 19.492 28.921 19.655V19.6547ZM31.0149 14.1331C31.3669 13.7107 31.7358 13.2981 32.0507 12.9499C32.2619 12.7155 32.4752 12.4813 32.6882 12.2478C33.2962 11.5805 33.9232 10.8917 34.4642 10.2293C34.5185 10.1997 34.559 10.15 34.577 10.0909C35.0244 9.55069 35.4188 8.96876 35.7549 8.3531V9.3291C35.7549 11.0352 33.8685 12.8331 32.0446 14.5733C30.671 15.8829 29.359 17.1366 28.9694 18.296C28.8619 16.9133 29.996 15.3529 31.0149 14.1334V14.1331ZM30.7986 13.6449C30.5432 13.4357 30.2832 13.233 30.0184 13.0369L30.6842 12.1585C30.9737 12.3729 31.2538 12.592 31.5246 12.8157C31.2946 13.072 31.0462 13.3534 30.7986 13.6453V13.6449ZM29.6283 12.7563C29.2354 12.4779 28.8242 12.207 28.3989 11.9459L29.0029 11.0246C29.4496 11.2983 29.8801 11.5826 30.2944 11.8774L29.6283 12.7563ZM27.9862 11.699C27.5659 11.455 27.1434 11.2272 26.7222 11.0171L27.2117 10.0285C27.6677 10.2547 28.1296 10.5048 28.5912 10.7753L27.9862 11.699ZM26.2918 10.8045C26.0232 10.679 25.8278 10.5952 25.7195 10.5505L25.1355 9.14142L26.0208 9.4859C26.0778 9.50814 26.352 9.6171 26.7798 9.81806L26.2918 10.8045ZM25.2754 10.7344C25.2304 10.8427 25.1507 11.0411 25.0488 11.3219L24.0042 10.9683C24.183 10.4758 24.3056 10.2013 24.3082 10.1966L24.6922 9.32494L25.2754 10.7344ZM24.8914 11.7761C24.7435 12.2177 24.6061 12.6784 24.4806 13.1521L23.4016 12.9267C23.5349 12.4193 23.6845 11.9163 23.8496 11.4235L24.8914 11.7761ZM24.3656 13.6192C24.2499 14.0992 24.1504 14.5817 24.0678 15.0616L22.9752 14.9107C23.0589 14.4128 23.1622 13.9051 23.2845 13.3933L24.3656 13.6192ZM23.9915 15.536C23.9425 15.8666 23.902 16.1952 23.8702 16.5216C23.4826 16.4896 23.1022 16.4659 22.7702 16.448C22.8046 16.0912 22.8477 15.7369 22.8997 15.3853L23.9915 15.536ZM24.063 17.02C25.6432 17.1622 27.5445 17.4643 28.4453 18.5165C27.3536 17.9737 25.5429 18.0144 23.64 18.0593C21.1298 18.1189 18.5323 18.1805 17.32 16.9856L17.3179 16.9843L16.6173 16.2835C17.3183 16.4887 18.0378 16.6243 18.7654 16.6883C18.7683 16.6883 18.7707 16.6905 18.7736 16.6909C19.6394 16.7808 20.5947 16.8249 21.5184 16.8669C21.8422 16.8817 22.1672 16.8968 22.4914 16.9137C22.4928 16.9137 22.4941 16.9147 22.4957 16.9149H22.5058H22.508C22.9438 16.9379 23.5107 16.9696 24.0638 17.0205L24.063 17.02ZM16.9835 17.3299C18.1726 18.5449 18.1112 21.1379 18.0517 23.6456C18.0067 25.5421 17.9653 27.3563 18.5085 28.4507C17.4576 27.5513 17.1552 25.6454 17.0123 24.063C16.973 23.6213 16.941 23.1369 16.9086 22.4925C16.8917 22.1725 16.8766 21.8496 16.8619 21.5288C16.82 20.6213 16.776 19.6846 16.6885 18.8296C16.6935 18.7926 16.6897 18.755 16.6774 18.7198C16.6122 18.0099 16.4782 17.3079 16.2774 16.6238L16.9835 17.3299ZM16.5138 23.8699C16.1888 23.9019 15.8623 23.9423 15.5344 23.9912L15.3835 22.8993C15.7333 22.8475 16.0867 22.8045 16.4418 22.7701C16.4638 23.1936 16.4877 23.5467 16.5138 23.8704V23.8699ZM10.7349 25.2752L9.32529 24.6912L10.1986 24.3072C10.2795 24.2707 10.5566 24.1549 10.9666 24.0059L11.3197 25.0499C11.0398 25.152 10.8427 25.231 10.7349 25.2757V25.2752ZM10.5507 25.7192C10.5955 25.8273 10.6795 26.0232 10.8067 26.2952L9.81953 26.7829C9.60993 26.3349 9.50033 26.0561 9.48689 26.0216L9.14161 25.136L10.5507 25.7192ZM11.0187 26.7253C11.2288 27.1453 11.4571 27.5673 11.7021 27.9875L10.7781 28.592C10.513 28.139 10.2632 27.6777 10.0315 27.2128L11.0187 26.7253ZM11.9467 28.4017C12.2074 28.8277 12.4782 29.2393 12.7555 29.6312L11.8778 30.296C11.5805 29.8773 11.2952 29.4454 11.0251 29.0048L11.9467 28.4017ZM13.0387 30.0197C13.235 30.2847 13.4386 30.5461 13.6496 30.8037C13.4029 31.0134 13.1341 31.2488 12.8194 31.5301C12.5954 31.2591 12.3753 30.9778 12.1592 30.6862L13.0387 30.0197ZM16.1042 32.6413C14.9029 34.1741 13.6606 35.7592 12.544 35.7592C12.5361 35.7604 12.5283 35.762 12.5206 35.764H11.0438C12.3621 35.0665 13.657 33.711 14.9216 32.3845C16.5266 30.7011 18.0416 29.111 19.1971 29.364L19.2078 29.3667L19.2936 29.3901H19.2966L19.3032 29.392C19.3498 29.4069 19.3953 29.4248 19.4397 29.4454C18.3133 29.8269 17.2355 31.1984 16.1043 32.6417L16.1042 32.6413ZM19.5554 24.3064C19.3334 26.1323 19.125 27.8693 19.6594 28.9349C19.6071 28.9165 19.5563 28.8945 19.5072 28.8689C19.4898 28.8579 19.4723 28.8469 19.4562 28.8379V28.8371C18.4245 28.2216 18.4771 26.0051 18.5328 23.6569C18.5763 21.8253 18.6189 19.9517 18.1808 18.5264L19.2414 19.5873C19.2475 19.5919 19.2538 19.5961 19.2603 19.6L19.2654 19.6051C19.2666 19.6064 19.2669 19.6081 19.2682 19.6094C20.0278 20.416 19.7878 22.3936 19.5555 24.3069L19.5554 24.3064ZM20.0325 24.3643C20.2059 22.9358 20.3714 21.5621 20.1798 20.5209L23.2506 23.5918C23.2515 23.5929 23.2531 23.5933 23.2542 23.5942C23.5119 23.8531 23.6564 24.2036 23.656 24.5689C23.6556 24.9342 23.5104 25.2844 23.2522 25.5427C23.054 25.7406 22.7853 25.8518 22.5052 25.8518C22.2251 25.8518 21.9565 25.7406 21.7582 25.5427C21.6843 25.4688 21.6256 25.3811 21.5856 25.2845C21.5456 25.188 21.525 25.0844 21.525 24.9799C21.525 24.8754 21.5456 24.7719 21.5856 24.6753C21.6256 24.5787 21.6843 24.491 21.7582 24.4171C21.8688 24.3067 22.0186 24.2448 22.1748 24.2448C22.331 24.2448 22.4808 24.3067 22.5914 24.4171C22.6137 24.4394 22.6402 24.4571 22.6693 24.4692C22.6985 24.4813 22.7297 24.4875 22.7613 24.4875C22.7928 24.4875 22.8241 24.4813 22.8532 24.4692C22.8824 24.4571 22.9089 24.4394 22.9312 24.4171C22.9535 24.3948 22.9712 24.3683 22.9833 24.3391C22.9954 24.31 23.0016 24.2787 23.0016 24.2472C23.0016 24.2156 22.9954 24.1844 22.9833 24.1552C22.9712 24.1261 22.9535 24.0996 22.9312 24.0773C22.7304 23.8769 22.4584 23.7644 22.1748 23.7644C21.8912 23.7644 21.6192 23.8769 21.4184 24.0773C21.2998 24.1958 21.2057 24.3365 21.1415 24.4914C21.0773 24.6462 21.0443 24.8122 21.0443 24.9799C21.0443 25.1476 21.0773 25.3136 21.1415 25.4684C21.2057 25.6233 21.2998 25.764 21.4184 25.8825C21.7067 26.1706 22.0976 26.3324 22.5052 26.3324C22.9128 26.3324 23.3037 26.1706 23.592 25.8825C23.7651 25.7102 23.9024 25.5052 23.9957 25.2794C24.0891 25.0537 24.1368 24.8116 24.136 24.5673C24.1356 24.3983 24.1123 24.23 24.0667 24.0672C24.3843 24.1564 24.7198 24.1594 25.0389 24.0758C25.358 23.9923 25.649 23.8252 25.8821 23.5918C26.1701 23.3035 26.3319 22.9126 26.3319 22.505C26.3319 22.0975 26.1701 21.7066 25.8821 21.4182C25.6427 21.1788 25.318 21.0443 24.9794 21.0443C24.6408 21.0443 24.3161 21.1788 24.0766 21.4182C23.8766 21.6191 23.7643 21.8911 23.7643 22.1746C23.7643 22.4581 23.8766 22.7301 24.0766 22.931C24.099 22.9533 24.1255 22.971 24.1546 22.9831C24.1838 22.9952 24.215 23.0014 24.2466 23.0014C24.2781 23.0014 24.3094 22.9952 24.3385 22.9831C24.3677 22.971 24.3942 22.9533 24.4165 22.931C24.4388 22.9087 24.4565 22.8822 24.4686 22.8531C24.4807 22.8239 24.4869 22.7927 24.4869 22.7611C24.4869 22.7295 24.4807 22.6983 24.4686 22.6691C24.4565 22.64 24.4388 22.6135 24.4165 22.5912C24.3061 22.4806 24.2441 22.3308 24.2441 22.1746C24.2441 22.0184 24.3061 21.8686 24.4165 21.7581C24.5682 21.6135 24.7698 21.5328 24.9794 21.5328C25.189 21.5328 25.3905 21.6135 25.5422 21.7581C25.7401 21.9563 25.8512 22.2249 25.8512 22.505C25.8512 22.7851 25.7401 23.0537 25.5422 23.252C25.2835 23.5107 24.9327 23.656 24.5668 23.656C24.2009 23.656 23.8501 23.5107 23.5914 23.252C23.5899 23.2505 23.5878 23.2502 23.5864 23.2488L20.5171 20.1808C21.5587 20.3728 22.9331 20.2077 24.3634 20.0341C26.1013 19.8229 27.8886 19.6081 28.8102 20.1435C27.5584 20.8971 26.6861 22.3886 27.3848 24.2539C27.4142 24.3309 27.4437 24.4078 27.4762 24.4843C27.4853 24.5057 27.4947 24.5261 27.5037 24.5472C26.3775 25.3811 25.3819 26.3783 24.5498 27.5059C24.528 27.4966 24.5064 27.4862 24.4848 27.4774C24.4122 27.4462 24.3395 27.4182 24.252 27.3846C22.3832 26.6861 20.8928 27.5606 20.141 28.8142C19.6056 27.8982 19.821 26.1064 20.0326 24.3648L20.0325 24.3643ZM27.4146 29.5749C27.1208 29.2608 26.807 28.9661 26.475 28.6926C27.1124 27.8581 27.8577 27.1118 28.6914 26.4734C28.9643 26.805 29.2586 27.1184 29.5723 27.4117C28.753 28.0256 28.0264 28.7543 27.4147 29.5753L27.4146 29.5749ZM29.9371 27.7395C30.2792 28.0329 30.6371 28.3075 31.0091 28.5619C30.0429 29.2114 29.2125 30.0429 28.5642 31.0099C28.3102 30.6385 28.0361 30.2813 27.743 29.94C28.3577 29.0988 29.0977 28.3568 29.9373 27.74L29.9371 27.7395ZM26.0918 28.3955C25.7447 28.1396 25.3775 27.9122 24.9936 27.7157C25.7665 26.6829 26.6823 25.7653 27.7136 24.9904C27.9102 25.3748 28.1377 25.7426 28.3938 26.0902C27.5279 26.7537 26.7539 27.5291 26.092 28.3961L26.0918 28.3955ZM27.4723 33.7283C26.8788 33.8576 26.2763 33.9416 25.6701 33.9797C25.669 33.9797 25.668 33.9797 25.667 33.9797C25.6661 33.9797 25.6616 33.9811 25.6586 33.9811H25.6528C25.0736 34.0175 24.4924 34.0006 23.9163 33.9304C23.35 33.8622 22.7933 33.7295 22.2571 33.5349L22.2522 33.5333L22.2459 33.5312C22.1677 33.5021 22.0898 33.4713 22.0158 33.4409L21.8016 33.3478C20.1106 32.5777 19.8114 30.9478 20.2656 29.6728C20.2667 29.6699 20.2674 29.667 20.2683 29.664C20.2693 29.6609 20.2715 29.6547 20.2728 29.6499C20.3075 29.5514 20.3474 29.4549 20.3925 29.3608L20.3933 29.3593C20.9717 28.1297 22.3374 27.1813 24.096 27.8393C24.163 27.8651 24.2304 27.8909 24.3003 27.9209C24.3776 27.9529 24.4531 27.9849 24.529 28.0214C25.0314 28.255 25.5062 28.5441 25.9445 28.8832C25.9648 28.9102 25.9906 28.9325 26.0202 28.9488C26.026 28.9513 26.0319 28.9536 26.0379 28.9555C26.4776 29.304 26.8857 29.6908 27.2573 30.1112C27.2616 30.116 27.265 30.1211 27.2696 30.1256C27.6709 30.5803 28.0371 31.0648 28.365 31.575C28.7024 32.0966 29.0015 32.6421 29.2598 33.207C28.6773 33.4241 28.0797 33.5986 27.4718 33.7289L27.4723 33.7283ZM29.5814 32.7597C29.3628 32.3089 29.1193 31.8706 28.852 31.4469C29.5164 30.4023 30.4016 29.5159 31.4453 28.8501C31.8696 29.1179 32.3085 29.3619 32.7598 29.5811C31.385 30.27 30.2701 31.3853 29.5816 32.7603L29.5814 32.7597ZM33.3462 21.7977L33.4398 22.0126C33.4718 22.0888 33.5006 22.1649 33.5298 22.2427C33.7276 22.7817 33.8619 23.342 33.9298 23.9121C33.9999 24.4885 34.0169 25.0701 33.9805 25.6496C33.9805 25.6539 33.9805 25.6584 33.9794 25.6629V25.6638C33.9416 26.262 33.8599 26.8565 33.735 27.4427C33.732 27.4513 33.7295 27.4601 33.7277 27.4691C33.598 28.0778 33.4237 28.6762 33.2062 29.2593C32.6408 29.0007 32.0949 28.7012 31.573 28.3633C31.0565 28.0316 30.5663 27.6606 30.1067 27.2537C29.6721 26.8702 29.2737 26.4475 28.9165 25.991C28.5614 25.5381 28.2598 25.0457 28.0178 24.5235C27.9829 24.4489 27.9509 24.3744 27.9187 24.2981C27.8885 24.2264 27.8608 24.1541 27.8341 24.0845C27.1848 22.351 28.1176 20.9896 29.3349 20.4045C29.343 20.4016 29.3509 20.3983 29.3586 20.3945C29.4566 20.3478 29.557 20.306 29.6592 20.2693C30.9389 19.8096 32.5758 20.1049 33.3464 21.7984L33.3462 21.7977ZM32.6405 16.1037C31.1928 17.2377 29.8174 18.3184 29.4416 19.4491C29.4189 19.4017 29.3994 19.3529 29.3832 19.3029C29.3754 19.2777 29.3686 19.2523 29.3626 19.2278C29.0794 18.0633 30.6808 16.5366 32.376 14.92C33.7021 13.656 35.0574 12.3609 35.7547 11.0432V12.544C35.7547 12.5497 35.7576 12.5545 35.7579 12.56C35.7429 13.6733 34.1667 14.9089 32.6406 16.1043L32.6405 16.1037ZM35.7598 2.32638V5.0707C35.586 4.87516 35.3727 4.71863 35.134 4.61139C34.8954 4.50415 34.6367 4.44862 34.375 4.44846C33.9679 4.44905 33.5775 4.61107 33.2896 4.899C33.0017 5.18693 32.8396 5.57727 32.839 5.98446C32.8394 6.32312 32.9741 6.64779 33.2136 6.88727C33.453 7.12675 33.7777 7.26148 34.1163 7.2619C34.4001 7.26148 34.6721 7.14857 34.8727 6.94792C35.0734 6.74727 35.1863 6.47526 35.1867 6.1915C35.1867 6.12785 35.1614 6.06681 35.1164 6.0218C35.0714 5.97679 35.0104 5.9515 34.9467 5.9515C34.8831 5.9515 34.822 5.97679 34.777 6.0218C34.732 6.06681 34.7067 6.12785 34.7067 6.1915C34.7066 6.34788 34.6444 6.49781 34.5338 6.60839C34.4233 6.71896 34.2733 6.78114 34.117 6.78126C33.9057 6.78101 33.7032 6.69697 33.5539 6.54759C33.4045 6.39822 33.3205 6.19569 33.3203 5.98446C33.3206 5.70448 33.432 5.43606 33.6299 5.23808C33.8279 5.04011 34.0963 4.92876 34.3763 4.92846C34.7422 4.92884 35.093 5.07435 35.3518 5.33307C35.6105 5.59178 35.7561 5.94257 35.7565 6.30846C35.7576 6.31633 35.7592 6.32412 35.7611 6.33182V6.64318C35.7592 6.65088 35.7576 6.65868 35.7565 6.66654C35.7565 7.42654 35.3198 8.35038 34.3896 9.55454C33.5659 8.02622 31.8362 7.14574 30.4922 6.5987C30.7988 5.41738 31.4757 4.36529 32.4236 3.59649C33.3715 2.8277 34.5407 2.3826 35.7598 2.32638ZM20.2997 9.88798C20.5115 9.46558 20.7298 9.04702 20.9443 8.63518C21.8702 6.85918 22.6942 5.27246 22.7413 3.9923C23.6798 4.86398 25.3824 5.40222 27.2915 6.00302C27.7328 6.1419 28.1814 6.28318 28.6286 6.4315C29.2083 6.6235 29.6808 6.79262 30.1166 6.9659C32.2322 7.80206 33.4866 8.75454 34.0573 9.96782C33.532 10.6078 32.9248 11.2758 32.3334 11.9245C32.1712 12.1024 32.0093 12.2807 31.8478 12.4593C31.5058 12.1765 31.1496 11.8971 30.7795 11.6293C30.2371 11.2339 29.6571 10.8507 29.0558 10.4901C28.4384 10.1198 27.8173 9.78334 27.2094 9.49038C26.6392 9.2139 26.2654 9.06542 26.1957 9.03838L24.7854 8.48974C24.7725 8.48626 24.7593 8.48396 24.7459 8.48286C24.7298 8.47823 24.7132 8.47533 24.6965 8.47422C24.676 8.47545 24.6558 8.47938 24.6363 8.4859C24.6262 8.48717 24.6162 8.48914 24.6064 8.49182C24.5979 8.49662 24.5897 8.50196 24.5819 8.50782C24.5448 8.5236 24.5148 8.55255 24.4978 8.5891C24.4906 8.59774 24.4842 8.60694 24.4786 8.61662L24.4765 8.6211L23.8694 10.0006C23.8626 10.0166 23.6986 10.3825 23.4694 11.0387C23.243 11.6947 23.0416 12.371 22.8706 13.0512C22.7005 13.7352 22.5618 14.4168 22.4587 15.076V15.0808C22.3894 15.5163 22.3358 15.9645 22.2923 16.423C22.0422 16.4105 21.7921 16.3984 21.5419 16.3867C20.6373 16.3449 19.7819 16.304 18.9725 16.2253C18.5131 14.9781 18.7214 13.4133 19.6274 11.3169C19.8141 10.8832 20.0346 10.416 20.2997 9.88798ZM11.0587 11.0669C12.1795 9.94185 13.639 9.21636 15.2125 9.00208C16.7859 8.7878 18.3862 9.0966 19.767 9.88094C19.591 10.2366 19.4341 10.5675 19.2942 10.8798C18.1183 10.2018 16.7523 9.92863 15.4061 10.1023C14.0598 10.2759 12.8078 10.8867 11.8424 11.8409H11.8413L11.8387 11.8433C10.883 12.8082 10.2707 14.0603 10.0958 15.4071C9.92096 16.7539 10.1933 18.1208 10.8709 19.2977C10.5624 19.436 10.235 19.5912 9.87265 19.7709C9.08981 18.3904 8.78187 16.7911 8.99615 15.2186C9.21042 13.6462 9.93506 12.1875 11.0587 11.0669ZM3.99409 22.7429C5.27313 22.6949 6.85809 21.8712 8.63265 20.9467C9.04289 20.7329 9.45985 20.5157 9.88065 20.3046C10.4237 20.0315 10.8773 19.8174 11.3083 19.6305C13.413 18.7185 14.9826 18.5089 16.2186 18.9664C16.2986 19.7808 16.3397 20.6414 16.3818 21.5515C16.3933 21.7976 16.4052 22.0437 16.4174 22.2899C15.9669 22.3331 15.5163 22.3875 15.0754 22.4577C14.3915 22.5665 13.7099 22.7056 13.0499 22.8717C12.3603 23.0449 11.6642 23.2521 11.0357 23.4707C10.3706 23.7037 10.005 23.8672 10.003 23.8681L8.61665 24.4784C8.60333 24.4858 8.59079 24.4945 8.57921 24.5045C8.53907 24.5256 8.50839 24.5611 8.49329 24.6038C8.49329 24.6048 8.49201 24.6053 8.49153 24.6062V24.6075C8.47998 24.636 8.474 24.6664 8.47393 24.6971C8.47514 24.7131 8.47798 24.7289 8.48241 24.7443C8.48366 24.7582 8.48613 24.772 8.48977 24.7854L9.03825 26.1952C9.05425 26.2369 9.20401 26.6185 9.49057 27.2109V27.212C9.79249 27.8345 10.1285 28.4552 10.4893 29.056C10.4907 29.0585 10.4923 29.0609 10.4939 29.0633V29.0641C10.8459 29.652 11.2274 30.2289 11.6269 30.7787C11.8941 31.1467 12.173 31.5022 12.4611 31.8507C12.2885 32.0075 12.1159 32.1645 11.9432 32.3216C11.2902 32.9176 10.6171 33.5301 9.97297 34.0595C8.76785 33.5024 7.80785 32.248 6.96881 30.1254C6.79201 29.6792 6.61681 29.1933 6.43441 28.6397C6.28465 28.1886 6.14225 27.7355 6.00241 27.2901C5.40225 25.3829 4.86385 23.6814 3.99409 22.7429Z" fill="#B5E3DB"/>
<path d="M33.8528 30.8171C32.8291 31.2438 31.9542 31.9633 31.3378 32.8853C30.7214 33.8074 30.3911 34.8909 30.3882 36H30.8691C30.8705 34.6404 31.4108 33.3367 32.3718 32.3749C33.3328 31.413 34.6359 30.8715 35.9955 30.869H36V30.3882C35.263 30.3883 34.5333 30.534 33.8528 30.8171Z" fill="#B5E3DB"/>
<path d="M66.0992 28.5485C66.2208 28.1758 66.3406 27.8021 66.4563 27.4344C67.1613 25.1931 67.827 23.0762 69.0269 22.5789C69.0378 22.5728 69.0481 22.5659 69.0578 22.5581C69.0749 22.5493 69.091 22.5385 69.1058 22.5261C69.109 22.5227 69.1102 22.5181 69.1133 22.5146C69.149 22.474 69.17 22.4226 69.1727 22.3686C69.1755 22.3146 69.1599 22.2613 69.1285 22.2174C69.0971 22.1734 69.0517 22.1413 68.9997 22.1264C68.9478 22.1116 68.8923 22.1147 68.8424 22.1354C67.6434 22.6334 65.6744 21.6074 63.5891 20.5208C63.2498 20.344 62.9032 20.1656 62.5562 19.9893C63.3827 18.5173 63.7053 16.8155 63.4749 15.1431C63.2444 13.4707 62.4735 11.9196 61.2796 10.726C60.0857 9.5325 58.5343 8.76202 56.8619 8.53204C55.1895 8.30206 53.4877 8.62518 52.016 9.45216C51.8387 9.1032 51.6594 8.75488 51.4816 8.41344C50.3936 6.32752 49.3674 4.35712 49.8656 3.15728C49.8777 3.12812 49.884 3.09685 49.884 3.06527C49.884 3.03369 49.8778 3.00241 49.8658 2.97323C49.8537 2.94406 49.8359 2.91755 49.8136 2.89524C49.7913 2.87292 49.7647 2.85524 49.7355 2.8432C49.7059 2.83087 49.6741 2.82467 49.6421 2.82495C49.58 2.82548 49.5205 2.84995 49.476 2.89328H49.4749C49.4674 2.90279 49.4606 2.91284 49.4546 2.92336C49.4415 2.93825 49.4304 2.95476 49.4216 2.97248C48.9243 4.17152 46.8066 4.83808 44.5645 5.54368C44.2008 5.65808 43.8315 5.77648 43.4629 5.89664C43.0072 4.27029 42.0314 2.83799 40.6845 1.81886C39.3377 0.799725 37.6941 0.249878 36.0051 0.253435H36V0.733435H36.0046C37.5918 0.730632 39.136 1.24907 40.4 2.2091C41.6639 3.16912 42.5777 4.51761 43.0008 6.04736C42.6158 6.17712 42.2744 6.29904 41.9592 6.41968C41.6057 5.10889 40.8316 3.95042 39.7559 3.1222C38.6801 2.29399 37.3622 1.84183 36.0046 1.8352H36V19.1232C36.1617 19.4109 36.397 19.6504 36.6817 19.8172C36.9665 19.984 37.2905 20.0721 37.6205 20.0725C38.0277 20.0719 38.418 19.9099 38.7059 19.6219C38.9939 19.334 39.1559 18.9437 39.1565 18.5365C39.1561 18.1978 39.0213 17.8732 38.7819 17.6337C38.5424 17.3943 38.2177 17.2596 37.879 17.2592C37.5953 17.2597 37.3234 17.3726 37.1228 17.5732C36.9222 17.7738 36.8093 18.0457 36.8088 18.3294C36.8088 18.3931 36.8341 18.4541 36.8791 18.4991C36.9241 18.5442 36.9851 18.5694 37.0488 18.5694C37.1125 18.5694 37.1735 18.5442 37.2185 18.4991C37.2635 18.4541 37.2888 18.3931 37.2888 18.3294C37.289 18.1731 37.3512 18.0232 37.4618 17.9126C37.5723 17.8021 37.7222 17.7399 37.8786 17.7397C38.0898 17.7399 38.2923 17.824 38.4417 17.9733C38.5911 18.1227 38.6751 18.3252 38.6754 18.5365C38.6751 18.8165 38.5637 19.0849 38.3657 19.2829C38.1678 19.4808 37.8993 19.5922 37.6194 19.5925C37.2535 19.5921 36.9027 19.4466 36.6439 19.1879C36.3852 18.9292 36.2396 18.5784 36.2392 18.2125V13.8683C36.8402 14.7402 37.9285 15.5949 39.0616 16.4826C40.4426 17.5645 41.8616 18.6792 42.1309 19.7061C40.7122 19.351 39.0398 19.788 38.2133 21.6027L38.1173 21.8245C38.1072 21.8483 38.0992 21.8712 38.0898 21.8946C37.398 21.7913 36.6995 21.7397 36 21.7405V22.2205C36.6439 22.2198 37.2871 22.2649 37.9246 22.3555C37.7917 22.7658 37.6927 23.1862 37.6286 23.6126C37.0887 23.5418 36.5446 23.5068 36 23.508V23.988C36.5243 23.9872 37.0482 24.0212 37.568 24.0898C37.5265 24.5196 37.513 24.9516 37.5277 25.3832C37.0217 25.3107 36.5112 25.2746 36 25.2752V25.7552C36.5203 25.7546 37.0398 25.7939 37.5541 25.8728C37.5887 26.3215 37.6474 26.768 37.7301 27.2104C37.1601 27.099 36.5807 27.0434 36 27.0443V27.5243C36.6173 27.5234 37.2329 27.5902 37.8357 27.7234C37.9458 28.2131 38.0836 28.6963 38.2483 29.1706C37.5231 28.9303 36.764 28.8077 36 28.8077V29.2862H36.0014C37.781 29.2894 39.4867 29.9978 40.7449 31.2562C42.0031 32.5146 42.7111 34.2205 42.7139 36H43.1925C43.1919 35.2358 43.069 34.4767 42.8285 33.7514C43.3021 33.9158 43.7845 34.0537 44.2734 34.1645C44.4072 34.7672 44.4749 35.3826 44.4754 36H44.9554C44.9548 35.419 44.898 34.8395 44.7856 34.2694C45.2279 34.3524 45.6745 34.4112 46.1232 34.4454C46.2029 34.9596 46.2433 35.4792 46.244 35.9995H46.724C46.7234 35.4875 46.686 34.9762 46.612 34.4696C46.7264 34.4733 46.8419 34.4798 46.9546 34.4798C47.2811 34.4798 47.5965 34.4602 47.9042 34.4296C47.9739 34.95 48.0093 35.4744 48.0102 35.9995H48.4902C48.4893 35.4549 48.4527 34.9109 48.3805 34.371C48.8071 34.3067 49.2279 34.2079 49.6386 34.0757C49.7305 34.713 49.7773 35.3561 49.7787 36H50.2597C50.2588 35.3008 50.2063 34.6025 50.1024 33.911C50.1253 33.9019 50.1482 33.8934 50.171 33.8842L50.3936 33.7882C52.2102 32.9611 52.6477 31.2891 52.2938 29.8718C53.3238 30.1438 54.437 31.5606 55.5171 32.9389C56.4048 34.0717 57.2598 35.1597 58.1315 35.7605H53.7883C53.4224 35.7601 53.0716 35.6146 52.8129 35.3559C52.5541 35.0972 52.4086 34.7464 52.4082 34.3805C52.4085 34.1005 52.5198 33.8321 52.7178 33.6341C52.9158 33.4361 53.1842 33.3248 53.4642 33.3245C53.6754 33.3247 53.8779 33.4087 54.0273 33.558C54.1767 33.7074 54.2607 33.9099 54.261 34.1211C54.2608 34.2775 54.1986 34.4274 54.088 34.538C53.9775 34.6485 53.8276 34.7107 53.6712 34.7109C53.6075 34.7109 53.5465 34.7362 53.5015 34.7812C53.4565 34.8262 53.4312 34.8872 53.4312 34.9509C53.4312 35.0145 53.4565 35.0756 53.5015 35.1206C53.5465 35.1656 53.6075 35.1909 53.6712 35.1909C53.955 35.1905 54.227 35.0775 54.4276 34.8769C54.6283 34.6763 54.7412 34.4042 54.7416 34.1205C54.7412 33.7818 54.6064 33.4572 54.367 33.2177C54.1275 32.9783 53.8028 32.8436 53.4642 32.8432C53.057 32.8438 52.6666 33.0058 52.3787 33.2937C52.0908 33.5817 51.9288 33.972 51.9282 34.3792C51.9284 34.7092 52.0163 35.0332 52.183 35.318C52.3497 35.6028 52.5891 35.8382 52.8766 36H70.1648V35.9987C70.1566 34.6415 69.7032 33.3245 68.8742 32.2499C68.0452 31.1753 66.8864 30.4025 65.5757 30.0501C65.6989 29.7278 65.8221 29.3834 65.948 29.0101C67.4778 29.4315 68.8268 30.3438 69.7874 31.6067C70.7481 32.8697 71.2672 34.4132 71.265 36H71.745C71.7481 34.3115 71.1976 32.6685 70.1779 31.3227C69.1582 29.9769 67.7255 29.0024 66.0992 28.5485ZM65.1928 35.76C64.4597 35.7102 63.5768 35.2694 62.4408 34.3906C63.9706 33.5678 64.8507 31.8419 65.3976 30.4998C66.5786 30.8052 67.6308 31.4805 68.4002 32.4271C69.1696 33.3736 69.6158 34.5416 69.6734 35.76H66.9402C67.1323 35.5859 67.2859 35.3735 67.3912 35.1366C67.4965 34.8996 67.5511 34.6433 67.5515 34.384C67.5509 33.9768 67.3889 33.5865 67.101 33.2985C66.8131 33.0106 66.4227 32.8486 66.0155 32.848C65.6769 32.8483 65.3522 32.983 65.1127 33.2224C64.8732 33.4618 64.7385 33.7865 64.7381 34.1251C64.7385 34.4089 64.8514 34.6809 65.0521 34.8815C65.2527 35.0822 65.5247 35.1951 65.8085 35.1955C65.8721 35.1955 65.9332 35.1702 65.9782 35.1252C66.0232 35.0802 66.0485 35.0192 66.0485 34.9555C66.0485 34.8919 66.0232 34.8308 65.9782 34.7858C65.9332 34.7408 65.8721 34.7155 65.8085 34.7155C65.6521 34.7154 65.5022 34.6532 65.3916 34.5426C65.281 34.4321 65.2188 34.2821 65.2187 34.1258C65.219 33.9146 65.3031 33.7121 65.4524 33.5628C65.6018 33.4135 65.8043 33.3295 66.0155 33.3293C66.2955 33.3296 66.5639 33.4409 66.7619 33.6389C66.9599 33.8369 67.0712 34.1053 67.0715 34.3853C67.0706 34.7319 66.9397 35.0655 66.7047 35.3203C66.4698 35.575 66.1478 35.7324 65.8024 35.7613H65.3342C65.327 35.7613 65.321 35.7648 65.3139 35.7654C65.2736 35.7635 65.2334 35.7626 65.1928 35.76ZM62.6715 35.7643C60.9645 35.7643 59.1656 33.8776 57.4261 32.0523C56.1179 30.68 54.8661 29.3694 53.7088 28.9784C55.0906 28.8738 56.6445 30.0024 57.8606 31.0179C58.1994 31.3014 58.5635 31.6198 59.0398 32.0485C59.0411 32.0498 59.0416 32.0517 59.043 32.053C59.0445 32.0542 59.047 32.055 59.0488 32.0565C59.2758 32.2616 59.5034 32.469 59.7298 32.6758C60.4261 33.3112 61.1461 33.9683 61.8346 34.5264C61.8357 34.5274 61.8371 34.5277 61.8382 34.5285C62.3981 34.998 63.0027 35.4114 63.6434 35.7627L62.6715 35.7643ZM60.9496 25.6664C60.8856 25.8139 60.7896 26.031 60.659 26.3011C60.6576 26.3042 60.6558 26.3072 60.6544 26.3102C60.6533 26.3121 60.6523 26.314 60.6515 26.316C60.389 26.8549 60.0931 27.4022 59.7715 27.9422C59.437 28.5022 59.0835 29.0403 58.7195 29.5422C58.4862 29.8656 58.2373 30.1843 57.9818 30.496C57.0034 29.6946 55.8349 28.8651 54.6685 28.5872C56.2467 28.1232 57.7368 28.8322 57.7526 28.84C57.781 28.8538 57.8118 28.8619 57.8433 28.8639C57.8748 28.8658 57.9064 28.8615 57.9362 28.8512C57.9661 28.841 57.9936 28.8249 58.0172 28.804C58.0409 28.7831 58.0602 28.7577 58.074 28.7294C58.0878 28.701 58.0959 28.6702 58.0979 28.6387C58.0998 28.6072 58.0955 28.5756 58.0852 28.5458C58.075 28.5159 58.0589 28.4884 58.038 28.4648C58.0171 28.4411 57.9917 28.4218 57.9634 28.408C57.3615 28.1413 56.7158 27.9873 56.0584 27.9536L58.8606 26.7941C58.9195 26.7697 58.9663 26.7229 58.9907 26.664C59.0151 26.6051 59.015 26.539 58.9906 26.4801C58.9662 26.4212 58.9194 26.3744 58.8606 26.35C58.8017 26.3257 58.7355 26.3257 58.6766 26.3501L55.8683 27.5128C56.3118 27.0231 56.6614 26.4559 56.8994 25.8395C56.9202 25.7793 56.9162 25.7132 56.8883 25.6559C56.8605 25.5986 56.811 25.5547 56.7507 25.5339C56.6905 25.5131 56.6244 25.5171 56.5671 25.5449C56.5098 25.5728 56.4659 25.6223 56.4451 25.6826C56.4392 25.6986 55.8875 27.2355 54.4675 28.0275C55.0818 27.0128 55.3187 25.6043 55.4435 24.3496C55.8378 24.3883 56.236 24.4371 56.6328 24.5013C57.2621 24.6022 57.8931 24.7333 58.5085 24.8904C59.1157 25.0432 59.7166 25.2222 60.2955 25.4226C60.3049 25.4264 60.3144 25.4298 60.3242 25.4326C60.592 25.5274 60.8054 25.6091 60.9496 25.6666V25.6664ZM60.2256 24.8949C59.7747 24.7445 59.3136 24.6069 58.8486 24.4851L59.0752 23.4014C59.5898 23.5365 60.1003 23.6882 60.5792 23.8486L60.2256 24.8949ZM58.3822 24.3669C57.9066 24.2514 57.424 24.1512 56.9398 24.068L57.0909 22.9755C57.6029 23.0624 58.1104 23.1662 58.6085 23.2859L58.3822 24.3669ZM59.4597 14.8382C59.2873 14.6651 59.0822 14.5279 58.8565 14.4345C58.6307 14.3412 58.3886 14.2935 58.1443 14.2942C58.1094 14.2942 58.0752 14.2973 58.0406 14.2992L59.9811 12.3587C60.804 13.2606 61.3164 14.4022 61.4433 15.6164C61.5702 16.8307 61.3049 18.0536 60.6862 19.1061C59.3485 18.5426 57.503 17.9422 55.8394 18.441C56.0333 16.9307 56.3778 15.9683 56.9144 15.4317C56.9198 15.4262 56.9219 15.4189 56.9267 15.4131L57.1456 15.1942C57.1537 15.1894 57.1615 15.184 57.169 15.1782C57.4277 14.9195 57.7785 14.7742 58.1444 14.7742C58.5103 14.7742 58.8611 14.9195 59.1198 15.1782C59.3174 15.3767 59.4284 15.6453 59.4284 15.9254C59.4284 16.2054 59.3174 16.474 59.1198 16.6725C58.97 16.8213 58.7674 16.9048 58.5562 16.9048C58.345 16.9048 58.1423 16.8213 57.9925 16.6725C57.8819 16.5618 57.8198 16.4117 57.8198 16.2553C57.8198 16.0988 57.8819 15.9488 57.9925 15.8381C58.0375 15.793 58.0629 15.7319 58.0629 15.6682C58.0629 15.6044 58.0375 15.5433 57.9925 15.4982C57.9474 15.4532 57.8863 15.4279 57.8226 15.4279C57.7588 15.4279 57.6977 15.4532 57.6526 15.4982C57.4521 15.6992 57.3395 15.9715 57.3395 16.2554C57.3395 16.5393 57.4521 16.8117 57.6526 17.0126C57.8927 17.2515 58.2175 17.3856 58.5562 17.3856C58.8948 17.3856 59.2196 17.2515 59.4597 17.0126C59.7471 16.724 59.9085 16.3332 59.9085 15.9258C59.9085 15.5185 59.7471 15.1277 59.4597 14.839V14.8382ZM53.5571 16.1662C54.0582 14.504 53.46 12.6594 52.8984 11.3224C53.9493 10.7031 55.1708 10.4366 56.3842 10.5618C57.5975 10.687 58.7389 11.1974 59.6411 12.0182L57.7096 13.9498C57.7218 13.6912 57.68 13.433 57.587 13.1915C57.4939 12.9501 57.3515 12.7306 57.169 12.5472C57.0264 12.4038 56.8569 12.2901 56.6701 12.2127C56.4834 12.1354 56.2831 12.0958 56.081 12.0963H56.08C55.8782 12.0959 55.6784 12.1356 55.4921 12.2131C55.3058 12.2905 55.1367 12.4042 54.9947 12.5475C54.7557 12.7871 54.6215 13.1117 54.6215 13.4501C54.6215 13.7885 54.7557 14.1131 54.9947 14.3526C55.1955 14.553 55.4676 14.6655 55.7512 14.6655C56.0349 14.6655 56.3069 14.553 56.5077 14.3526C56.5527 14.3076 56.5781 14.2464 56.5781 14.1827C56.5781 14.119 56.5527 14.0579 56.5077 14.0128C56.4626 13.9677 56.4015 13.9424 56.3378 13.9424C56.274 13.9424 56.2129 13.9677 56.1678 14.0128C56.0573 14.1231 55.9074 14.1851 55.7512 14.1851C55.595 14.1851 55.4452 14.1231 55.3346 14.0128C55.1855 13.8634 55.1019 13.6609 55.1019 13.4499C55.1019 13.2389 55.1855 13.0365 55.3346 12.887C55.4321 12.7886 55.5483 12.7104 55.6763 12.6572C55.8042 12.6039 55.9415 12.5766 56.0802 12.5768H56.0811C56.2201 12.5765 56.3577 12.6038 56.486 12.6571C56.6144 12.7103 56.7309 12.7885 56.8288 12.887C57.073 13.1328 57.216 13.4613 57.2296 13.8075C57.2432 14.1537 57.1264 14.4924 56.9022 14.7566L56.571 15.0878C56.5666 15.0925 56.5648 15.0986 56.5608 15.1038C56.0205 15.6354 55.0595 15.9763 53.5571 16.1672V16.1662ZM41.5091 14.013C41.8192 13.759 42.1363 13.5115 42.459 13.2789C42.9589 12.9165 43.4933 12.5643 44.0478 12.2318C44.0544 12.2285 44.0613 12.2269 44.0675 12.2229C44.0706 12.221 44.072 12.2178 44.0749 12.2158C44.6118 11.8976 45.1568 11.6035 45.6942 11.3426C45.6962 11.3416 45.6982 11.3426 45.7002 11.3411C45.7021 11.3397 45.7045 11.3374 45.7072 11.336C45.9728 11.208 46.1872 11.112 46.3336 11.0493C46.3928 11.1979 46.4776 11.4194 46.576 11.7018V11.7034C46.7699 12.2608 46.9549 12.8792 47.1109 13.4923C47.2682 14.1147 47.3989 14.7459 47.4982 15.3682C47.5622 15.7698 47.6115 16.1698 47.6501 16.5638C46.3922 16.6886 44.9795 16.9275 43.9581 17.5558C44.7462 16.1176 46.3003 15.5603 46.3171 15.5544C46.3774 15.5336 46.4269 15.4897 46.4547 15.4324C46.4826 15.3751 46.4866 15.309 46.4658 15.2488C46.4449 15.1886 46.4011 15.1391 46.3437 15.1112C46.2864 15.0833 46.2204 15.0793 46.1602 15.1002C45.5466 15.3371 44.9816 15.6846 44.4933 16.1253L45.6526 13.3253C45.677 13.2664 45.677 13.2003 45.6526 13.1414C45.6281 13.0825 45.5814 13.0358 45.5225 13.0114C45.4636 12.9871 45.3975 12.9871 45.3386 13.0115C45.2797 13.0359 45.233 13.0827 45.2086 13.1416L44.0462 15.9496C44.0134 15.2896 43.8592 14.6414 43.5915 14.0373C43.5636 13.98 43.5141 13.9361 43.4539 13.9153C43.3937 13.8945 43.3277 13.8985 43.2704 13.9264C43.2131 13.9543 43.1692 14.0038 43.1485 14.064C43.1277 14.1242 43.1316 14.1902 43.1595 14.2475C43.1674 14.2635 43.8674 15.7464 43.4173 17.313C43.1349 16.1483 42.3075 14.987 41.5094 14.0139L41.5091 14.013ZM43.3589 19.2234C44.1651 18.4402 46.197 18.4885 48.3482 18.5395C50.1803 18.5829 52.055 18.6254 53.4808 18.1856L52.435 19.2317C52.4293 19.2365 52.4219 19.2386 52.4165 19.244C51.6264 20.0339 49.627 19.791 47.6933 19.5565C45.8752 19.3355 44.1451 19.1277 43.0786 19.6541C43.1385 19.4915 43.2344 19.3446 43.3592 19.2243L43.3589 19.2234ZM43.0301 18.2954C42.6405 17.136 41.3285 15.8822 39.9549 14.5726C38.1309 12.8331 36.2446 11.0346 36.2446 9.32848V8.35248C36.5807 8.96814 36.9751 9.55007 37.4226 10.0902C37.4403 10.1492 37.4806 10.1989 37.5346 10.2286C38.0755 10.891 38.7026 11.5798 39.3106 12.2472C39.5235 12.4806 39.7368 12.7149 39.948 12.9493C40.2629 13.2974 40.632 13.7101 40.9838 14.1325C42.0038 15.353 43.1379 16.9133 43.0304 18.2957L43.0301 18.2954ZM40.4752 12.816C40.7456 12.593 41.0258 12.3739 41.3157 12.1589L41.9814 13.0373C41.7171 13.2328 41.4571 13.4355 41.2013 13.6453C40.9536 13.3534 40.7053 13.072 40.4752 12.816ZM41.7054 11.8774C42.1184 11.5837 42.5502 11.2984 42.997 11.0246L43.601 11.9459C43.1757 12.207 42.7645 12.4779 42.3715 12.7563L41.7054 11.8774ZM43.408 10.7757C43.8696 10.5051 44.3317 10.255 44.7877 10.0288L45.2771 11.0174C44.8565 11.2275 44.4339 11.4554 44.0131 11.6994L43.408 10.7757ZM45.22 9.8184C45.6478 9.61744 45.9221 9.50848 45.979 9.48624L46.8643 9.14176L46.2803 10.5509C46.1725 10.5955 45.9763 10.6789 45.708 10.8048L45.22 9.8184ZM47.3086 9.32528L47.6926 10.197C47.6947 10.2016 47.8173 10.4762 47.9966 10.9686L46.9518 11.3222C46.8501 11.0414 46.7704 10.8422 46.7254 10.7347L47.3086 9.32528ZM48.1499 11.424C48.3147 11.9168 48.4643 12.4198 48.5979 12.9272L47.5189 13.1526C47.3934 12.6789 47.256 12.2182 47.1082 11.7766L48.1499 11.424ZM48.7147 13.3938C48.837 13.9058 48.9403 14.4133 49.024 14.9112L47.9314 15.0621C47.8488 14.5821 47.7493 14.0998 47.6336 13.6197L48.7147 13.3938ZM49.1002 15.3859C49.152 15.737 49.1951 16.0912 49.2296 16.4486C48.8974 16.4666 48.5173 16.4902 48.1296 16.5222C48.0976 16.197 48.0572 15.8685 48.0083 15.5366L49.1002 15.3859ZM49.4922 16.9162H49.4946H49.5046C49.5062 16.9162 49.5075 16.9152 49.509 16.915C49.8331 16.8981 50.1581 16.883 50.4819 16.8682C51.4056 16.8254 52.361 16.7813 53.2267 16.6922C53.2296 16.6922 53.232 16.6899 53.2349 16.6896C53.9625 16.6256 54.682 16.49 55.383 16.2848L54.6824 16.9856L54.6803 16.9869C53.4675 18.1818 50.8701 18.1202 48.3603 18.0606C46.4574 18.0157 44.6467 17.975 43.555 18.5178C44.4558 17.4656 46.3571 17.1635 47.9371 17.0213C48.4891 16.9696 49.056 16.9381 49.4922 16.9162ZM55.7224 16.6245C55.5216 17.3086 55.3877 18.0105 55.3224 18.7205C55.3101 18.7557 55.3063 18.7933 55.3114 18.8302C55.2238 19.6853 55.1798 20.6222 55.1379 21.5294C55.1232 21.8502 55.1082 22.1725 55.0912 22.4931C55.0592 23.1376 55.0272 23.6219 54.9875 24.0637C54.8446 25.6461 54.5422 27.5517 53.4914 28.4514C54.0346 27.357 53.9931 25.5427 53.9482 23.6462C53.8886 21.1384 53.8272 18.5456 55.0163 17.3306L55.7224 16.6245ZM55.5581 22.7707C55.9131 22.8051 56.2666 22.8482 56.6163 22.9L56.4654 23.9918C56.1381 23.9429 55.8116 23.9024 55.4861 23.8706C55.5122 23.5467 55.536 23.1936 55.5581 22.7706V22.7707ZM60.6806 25.0501L61.0338 24.0061C61.4432 24.155 61.7203 24.2709 61.8018 24.3074L62.675 24.6914L61.2654 25.2754C61.1571 25.231 60.96 25.152 60.6806 25.0499V25.0501ZM62.8581 25.136L62.5138 26.0214C62.5003 26.056 62.3907 26.3352 62.1811 26.7827L61.1939 26.295C61.3203 26.0246 61.4043 25.828 61.4499 25.719L62.8581 25.136ZM61.968 27.2133C61.7363 27.6782 61.4866 28.1395 61.2214 28.5925L60.2974 27.988C60.5424 27.5678 60.7707 27.1458 60.9808 26.7258L61.968 27.2133ZM60.9742 29.0053C60.7042 29.4459 60.4189 29.8778 60.1216 30.2965L59.2438 29.6317C59.5211 29.2398 59.792 28.8282 60.0526 28.4022L60.9742 29.0053ZM59.84 30.6862C59.624 30.9774 59.4039 31.2587 59.1798 31.5301C58.8651 31.2488 58.5962 31.0134 58.3496 30.8037C58.5604 30.5469 58.764 30.2856 58.9605 30.0197L59.84 30.6862ZM52.56 29.4467C52.6043 29.4261 52.6499 29.4082 52.6965 29.3933L52.703 29.3914H52.7061L52.7918 29.368H52.7926L52.8034 29.3653C53.959 29.1123 55.4739 30.7024 57.0789 32.3858C58.3429 33.7123 59.6389 35.0678 60.9566 35.7653H59.4797C59.472 35.7633 59.4642 35.7617 59.4563 35.7605C58.3397 35.7605 57.0974 34.1754 55.8962 32.6426C54.7643 31.1984 53.6866 29.8269 52.56 29.4467ZM52.7336 19.6099C52.7349 19.6086 52.7352 19.6069 52.7363 19.6056L52.7414 19.6005C52.748 19.5966 52.7543 19.5924 52.7603 19.5878L53.821 18.5269C53.3822 19.9522 53.4248 21.8258 53.469 23.6574C53.5246 26.005 53.5773 28.2221 52.5456 28.8376L52.5448 28.8384C52.5288 28.8474 52.5112 28.8584 52.4938 28.8693C52.4447 28.8948 52.3938 28.9169 52.3416 28.9352C52.876 27.8696 52.6675 26.1326 52.4456 24.3067C52.212 22.3936 51.972 20.416 52.733 19.6099H52.7336ZM51.8586 28.8147C51.1066 27.5603 49.6165 26.6867 47.7477 27.3851C47.6602 27.4187 47.5877 27.4467 47.5149 27.4779C47.4933 27.4867 47.4717 27.4971 47.4499 27.5064C46.6178 26.3788 45.6222 25.3816 44.496 24.5477C44.505 24.5266 44.5144 24.5062 44.5235 24.4848C44.5555 24.4083 44.5854 24.3314 44.6149 24.2544C45.3136 22.3891 44.4413 20.8976 43.1894 20.144C44.111 19.6086 45.8982 19.824 47.6363 20.0346C49.0659 20.2082 50.441 20.3733 51.4826 20.1813L48.4133 23.2493C48.4118 23.2507 48.4098 23.251 48.4083 23.2525C48.1496 23.5112 47.7987 23.6565 47.4329 23.6565C47.067 23.6565 46.7161 23.5112 46.4574 23.2525C46.2596 23.0542 46.1485 22.7856 46.1485 22.5055C46.1485 22.2254 46.2596 21.9568 46.4574 21.7586C46.6092 21.614 46.8107 21.5333 47.0203 21.5333C47.2299 21.5333 47.4315 21.614 47.5832 21.7586C47.6936 21.8691 47.7555 22.0189 47.7555 22.1751C47.7555 22.3313 47.6936 22.4811 47.5832 22.5917C47.5609 22.614 47.5432 22.6405 47.5311 22.6696C47.519 22.6988 47.5128 22.73 47.5128 22.7616C47.5128 22.7932 47.519 22.8244 47.5311 22.8536C47.5432 22.8827 47.5609 22.9092 47.5832 22.9315C47.6055 22.9538 47.632 22.9715 47.6612 22.9836C47.6903 22.9957 47.7216 23.0019 47.7531 23.0019C47.7847 23.0019 47.8159 22.9957 47.8451 22.9836C47.8742 22.9715 47.9007 22.9538 47.923 22.9315C48.1231 22.7306 48.2354 22.4586 48.2354 22.1751C48.2354 21.8916 48.1231 21.6196 47.923 21.4187C47.6836 21.1793 47.3589 21.0448 47.0203 21.0448C46.6817 21.0448 46.357 21.1793 46.1176 21.4187C45.8296 21.7071 45.6678 22.098 45.6678 22.5055C45.6678 22.9131 45.8296 23.304 46.1176 23.5923C46.3506 23.8258 46.6416 23.9929 46.9607 24.0765C47.2797 24.16 47.6153 24.157 47.9328 24.0677C47.8872 24.2305 47.864 24.3988 47.8637 24.5678C47.8629 24.8121 47.9105 25.0542 48.0039 25.2799C48.0973 25.5057 48.2345 25.7107 48.4077 25.883C48.696 26.1711 49.0869 26.3329 49.4945 26.3329C49.9021 26.3329 50.293 26.1711 50.5813 25.883C50.6999 25.7645 50.794 25.6238 50.8582 25.4689C50.9223 25.3141 50.9554 25.1481 50.9554 24.9804C50.9554 24.8127 50.9223 24.6467 50.8582 24.4918C50.794 24.337 50.6999 24.1963 50.5813 24.0778C50.3805 23.8774 50.1085 23.7649 49.8249 23.7649C49.5413 23.7649 49.2692 23.8774 49.0685 24.0778C49.0462 24.1001 49.0285 24.1266 49.0164 24.1557C49.0043 24.1849 48.9981 24.2161 48.9981 24.2477C48.9981 24.2792 49.0043 24.3105 49.0164 24.3396C49.0285 24.3688 49.0462 24.3953 49.0685 24.4176C49.0908 24.4399 49.1173 24.4576 49.1464 24.4697C49.1756 24.4818 49.2068 24.488 49.2384 24.488C49.27 24.488 49.3012 24.4818 49.3304 24.4697C49.3595 24.4576 49.386 24.4399 49.4083 24.4176C49.5189 24.3072 49.6687 24.2453 49.8249 24.2453C49.9811 24.2453 50.1309 24.3072 50.2414 24.4176C50.3154 24.4915 50.3741 24.5792 50.4141 24.6758C50.4541 24.7724 50.4747 24.8759 50.4747 24.9804C50.4747 25.0849 50.4541 25.1884 50.4141 25.285C50.3741 25.3816 50.3154 25.4693 50.2414 25.5432C50.0432 25.7411 49.7746 25.8523 49.4945 25.8523C49.2144 25.8523 48.9457 25.7411 48.7475 25.5432C48.4893 25.2849 48.344 24.9347 48.3437 24.5694C48.3433 24.2041 48.4878 23.8536 48.7454 23.5947C48.7466 23.5938 48.748 23.5934 48.7491 23.5923L51.8198 20.5214C51.6278 21.5626 51.7938 22.9363 51.9672 24.3648C52.1789 26.1064 52.3942 27.8982 51.8579 28.8147H51.8586ZM42.428 27.4122C42.7417 27.1189 43.036 26.8055 43.309 26.4739C44.1427 27.1123 44.8879 27.8586 45.5253 28.6931C45.1933 28.9665 44.8795 29.2612 44.5858 29.5754C43.9738 28.7545 43.2469 28.0259 42.4274 27.4122H42.428ZM44.2579 29.9402C43.9648 30.2815 43.6907 30.6387 43.4368 31.0101C42.7885 30.043 41.958 29.2116 40.9917 28.5621C41.3637 28.3077 41.7216 28.0331 42.0637 27.7397C42.9031 28.3568 43.6429 29.099 44.2573 29.9405L44.2579 29.9402ZM43.6059 26.0906C43.862 25.7429 44.0894 25.3751 44.2861 24.9907C45.3174 25.7656 46.2332 26.6832 47.0061 27.716C46.6222 27.9125 46.2549 28.1399 45.9078 28.3958C45.2456 27.5291 44.4713 26.754 43.6053 26.0909L43.6059 26.0906ZM42.741 33.2072C42.9993 32.6423 43.2984 32.0968 43.6357 31.5752C43.9637 31.065 44.3299 30.5805 44.7312 30.1258C44.7358 30.1213 44.7392 30.1162 44.7435 30.1114C45.1151 29.6909 45.5232 29.3042 45.9629 28.9557C45.9689 28.9538 45.9747 28.9515 45.9805 28.949C46.0101 28.9327 46.036 28.9104 46.0563 28.8834C46.4946 28.5443 46.9694 28.2552 47.4718 28.0216C47.5477 27.9859 47.6232 27.9526 47.7005 27.9211C47.7704 27.891 47.8378 27.8653 47.9048 27.8395C49.6634 27.1818 51.0291 28.1302 51.6075 29.3595V29.361C51.6526 29.4551 51.6925 29.5516 51.7272 29.6501C51.7285 29.6549 51.7301 29.6595 51.7317 29.6642C51.7333 29.6688 51.7333 29.6701 51.7344 29.673C52.1878 30.9486 51.8886 32.5779 50.1984 33.348L49.9842 33.4411C49.9101 33.4715 49.8323 33.5022 49.7541 33.5314L49.7478 33.5334L49.7429 33.535C49.2067 33.7296 48.65 33.8623 48.0837 33.9306C47.5076 34.0007 46.9263 34.0177 46.347 33.9813H46.3413C46.3384 33.9813 46.336 33.9798 46.333 33.9798C46.3299 33.9798 46.331 33.9798 46.3299 33.9798C45.7237 33.9418 45.1212 33.8578 44.5277 33.7285C43.9201 33.5984 43.3227 33.4243 42.7403 33.2075L42.741 33.2072ZM39.2405 29.5814C39.6919 29.3623 40.1307 29.1182 40.555 28.8504C41.5987 29.5162 42.4839 30.4026 43.1483 31.4472C42.881 31.8709 42.6374 32.3092 42.4187 32.76C41.73 31.3852 40.6148 30.2702 39.2398 29.5818L39.2405 29.5814ZM42.3403 20.268C42.448 20.307 42.5464 20.348 42.641 20.3933C42.6487 20.397 42.6566 20.4004 42.6646 20.4032C43.8819 20.9891 44.8147 22.3506 44.1654 24.0832C44.1387 24.1533 44.111 24.2251 44.0806 24.2968C44.0486 24.3731 44.0166 24.4477 43.9816 24.5222C43.7397 25.0444 43.4382 25.5369 43.083 25.9898C42.7258 26.4462 42.3274 26.8689 41.8928 27.2525C41.4332 27.6593 40.943 28.0303 40.4266 28.3621C39.9046 28.7 39.3587 28.9994 38.7933 29.2581C38.5758 28.6749 38.4015 28.0766 38.2718 27.4678C38.27 27.4589 38.2675 27.4501 38.2645 27.4414C38.1396 26.8553 38.0579 26.2607 38.0202 25.6626V25.664C38.0202 25.6595 38.0194 25.655 38.019 25.6507C37.9827 25.0712 37.9996 24.4896 38.0698 23.9133C38.1379 23.3431 38.2724 22.7828 38.4706 22.2438C38.4997 22.1661 38.5285 22.0899 38.5605 22.0138L38.6541 21.7989C39.424 20.105 41.061 19.8096 42.3397 20.2683L42.3403 20.268ZM36.2418 12.56C36.2418 12.5544 36.245 12.5496 36.245 12.544V11.0438C36.9422 12.3616 38.2974 13.6563 39.6235 14.9206C41.3195 16.5366 42.9203 18.064 42.6371 19.2285C42.6309 19.253 42.6243 19.2784 42.6163 19.3035C42.6003 19.3535 42.5808 19.4024 42.5581 19.4498C42.1822 18.319 40.8069 17.2384 39.3592 16.1043C37.8331 14.909 36.257 13.6733 36.2418 12.56ZM41.5093 6.59824C40.1653 7.14528 38.4355 8.02576 37.6118 9.55408C36.6816 8.34992 36.245 7.42608 36.245 6.66608C36.2438 6.65821 36.2423 6.65041 36.2403 6.64272V6.33248C36.2423 6.32478 36.2438 6.31698 36.245 6.30912C36.2454 5.94322 36.3909 5.59243 36.6497 5.33372C36.9084 5.07501 37.2592 4.9295 37.6251 4.92912C37.9051 4.92941 38.1735 5.04076 38.3715 5.23874C38.5695 5.43671 38.6808 5.70514 38.6811 5.98512C38.6809 6.19635 38.5969 6.39887 38.4476 6.54825C38.2982 6.69763 38.0957 6.78166 37.8845 6.78192C37.7281 6.78179 37.5782 6.71961 37.4676 6.60904C37.357 6.49846 37.2948 6.34853 37.2947 6.19216C37.2947 6.1285 37.2694 6.06746 37.2244 6.02245C37.1794 5.97744 37.1184 5.95216 37.0547 5.95216C36.9911 5.95216 36.93 5.97744 36.885 6.02245C36.84 6.06746 36.8147 6.1285 36.8147 6.19216C36.8151 6.47591 36.9281 6.74793 37.1287 6.94857C37.3293 7.14922 37.6014 7.26213 37.8851 7.26256C38.2238 7.26213 38.5484 7.1274 38.7879 6.88793C39.0273 6.64845 39.162 6.32377 39.1624 5.98512C39.1618 5.57793 38.9998 5.18758 38.7119 4.89965C38.4239 4.61173 38.0336 4.44971 37.6264 4.44912C37.3647 4.44927 37.1061 4.5048 36.8674 4.61204C36.6287 4.71929 36.4155 4.87582 36.2416 5.07136V2.3264C37.4608 2.38264 38.6299 2.82775 39.5778 3.59654C40.5257 4.36533 41.2026 5.41741 41.5093 6.59871V6.59824ZM52.3733 11.3182C53.2794 13.4142 53.4877 14.9794 53.0283 16.2266C52.2189 16.3053 51.3643 16.3462 50.4589 16.388C50.2092 16.3996 49.959 16.4117 49.7085 16.4243C49.665 15.9658 49.6114 15.5176 49.5421 15.0821V15.0773C49.439 14.4181 49.3003 13.7365 49.1302 13.0525C48.9592 12.3723 48.7578 11.6955 48.5314 11.04C48.3021 10.384 48.1381 10.0173 48.1314 10.0019L47.5243 8.6224L47.5222 8.61792C47.5165 8.60827 47.5101 8.59907 47.503 8.5904C47.4943 8.5737 47.4835 8.55812 47.471 8.544C47.4554 8.53008 47.438 8.51835 47.4192 8.50912C47.4115 8.50322 47.4033 8.49787 47.3949 8.49312C47.3851 8.49044 47.3751 8.48846 47.365 8.4872C47.33 8.47273 47.291 8.47165 47.2554 8.48416C47.242 8.48525 47.2288 8.48756 47.2158 8.49104L45.8056 9.03968C45.7362 9.06672 45.3621 9.21568 44.7918 9.49168C44.1838 9.78464 43.5629 10.1211 42.9454 10.4914C42.3442 10.852 41.764 11.2352 41.2218 11.6306C40.8517 11.8984 40.4955 12.1778 40.1534 12.4606C39.9919 12.2822 39.83 12.1039 39.6677 11.9258C39.0757 11.2771 38.4693 10.6088 37.944 9.96912C38.5147 8.75584 39.7691 7.80336 41.8846 6.9672C42.32 6.79392 42.7925 6.62416 43.3726 6.4328C43.8198 6.28448 44.2686 6.1432 44.7098 6.00432C46.6173 5.40224 48.32 4.864 49.2586 3.9928C49.3056 5.2728 50.1296 6.85936 51.0555 8.63568C51.2701 9.04752 51.4883 9.46608 51.7002 9.88848C51.9653 10.416 52.1858 10.8832 52.3741 11.3182H52.3733ZM62.1269 19.7722C61.7643 19.5925 61.4371 19.4373 61.1286 19.299C61.8063 18.1221 62.0786 16.7552 61.9037 15.4084C61.7288 14.0616 61.1165 12.8095 60.1608 11.8446L60.1582 11.8422H60.1571C59.1919 10.8879 57.94 10.2769 56.5938 10.1031C55.2476 9.92925 53.8816 10.2022 52.7056 10.88C52.5658 10.5677 52.409 10.2368 52.2328 9.88112C53.6141 9.09976 55.2134 8.79253 56.7859 9.00646C58.3584 9.22038 59.8175 9.94368 60.9399 11.0656C62.0623 12.1876 62.7861 13.6464 63.0006 15.2189C63.2152 16.7913 62.9085 18.3907 62.1277 19.7723L62.1269 19.7722ZM65.997 27.2901C65.8568 27.7355 65.7144 28.1886 65.565 28.6397C65.3821 29.1933 65.2074 29.6797 65.0306 30.1254C64.191 32.248 63.2322 33.5024 62.0246 34.0605C61.3805 33.531 60.7074 32.9186 60.0544 32.3226C59.8819 32.1654 59.7092 32.0085 59.5363 31.8517C59.8243 31.5038 60.1035 31.1488 60.3707 30.7797C60.7707 30.2299 61.1514 29.653 61.5037 29.0651V29.0643C61.5051 29.0619 61.5069 29.0595 61.5083 29.057C61.8691 28.4562 62.205 27.8355 62.507 27.213V27.2118C62.7936 26.6198 62.943 26.2379 62.9594 26.1962L63.5078 24.7864C63.5115 24.7729 63.5139 24.7592 63.5152 24.7453C63.5195 24.7299 63.5224 24.714 63.5237 24.6981C63.5236 24.6674 63.5176 24.6369 63.5061 24.6085V24.6072C63.5061 24.6062 63.5048 24.6058 63.5043 24.6048C63.4925 24.5771 63.4755 24.5519 63.4544 24.5304C63.4432 24.521 63.4311 24.5127 63.4184 24.5054C63.4068 24.4955 63.3943 24.4868 63.381 24.4794L61.9946 23.8691C61.9926 23.8682 61.6266 23.7046 60.9619 23.4717C60.3334 23.2531 59.6373 23.0459 58.9477 22.8726C58.2875 22.7066 57.6061 22.5675 56.9222 22.4587C56.4813 22.3885 56.0307 22.3341 55.5802 22.2909C55.5923 22.0448 55.6042 21.7987 55.6158 21.5525C55.6579 20.6424 55.699 19.7818 55.779 18.9674C57.015 18.5099 58.5846 18.7194 60.6893 19.6315C61.1203 19.8184 61.5739 20.0325 62.117 20.3056C62.5378 20.5166 62.9547 20.7339 63.365 20.9477C65.139 21.8722 66.725 22.6962 68.0035 22.7438C67.136 23.6814 66.5976 25.3829 65.9978 27.2901H65.997Z" fill="#B5E3DB"/>
<path d="M38.1472 30.8171C39.171 31.2437 40.0459 31.9632 40.6623 32.8853C41.2786 33.8073 41.6089 34.8909 41.6117 36H41.1309C41.1296 34.6404 40.5892 33.3367 39.6282 32.3749C38.6673 31.413 37.3641 30.8715 36.0045 30.869H36V30.3882C36.737 30.3883 37.4667 30.534 38.1472 30.8171Z" fill="#B5E3DB"/>
</svg>
